<?xml version="1.0" encoding="utf-8"?>
<!-- Generator: Adobe Illustrator 19.0.0, SVG Export Plug-In . SVG Version: 6.00 Build 0)  -->
<svg version="1.1"
	 id="圖層_1" xmlns:dc="http://purl.org/dc/elements/1.1/" xmlns:rdf="http://www.w3.org/1999/02/22-rdf-syntax-ns#" xmlns:cc="http://creativecommons.org/ns#"
	 xmlns="http://www.w3.org/2000/svg" xmlns:xlink="http://www.w3.org/1999/xlink" x="0px" y="0px" viewBox="-842 2544.4 16 16"
	 style="enable-background:new -842 2544.4 16 16;" xml:space="preserve">
<style type="text/css">
	.st0{fill:#55739A;}
	.st1{opacity:0.9;fill:#FFFFFF;enable-background:new    ;}
</style>
<g transform="matrix(.86667 0 0 .86667 -172.05 -864.43)">
	<path class="st0" d="M-771.3,3935.5c-0.3,0-0.5,0.2-0.5,0.5v12.8c0,0.3,0.2,0.5,0.5,0.5h15.1c0.3,0,0.5-0.2,0.5-0.5l0-10.5
		c0-0.3-0.2-0.5-0.5-0.5l-7.5,0l-2.3-2.3H-771.3z"/>
</g>
<g>
	<g id="history">
		<path class="st1" d="M-833.8,2549.6c-1.3,0-2.5,0.7-3.1,1.8l-0.9-0.9v2.5h2.5l-1.1-1.1c0.5-1,1.4-1.6,2.6-1.6
			c1.6,0,2.9,1.3,2.9,2.9c0,1.6-1.3,2.9-2.9,2.9c-1.3,0-2.3-0.8-2.7-1.9h-0.8c0.4,1.5,1.8,2.7,3.5,2.7c2,0,3.6-1.6,3.6-3.6
			S-831.8,2549.6-833.8,2549.6z M-834.4,2551.5v1.9l1.8,1.1l0.3-0.5l-1.5-0.9v-1.6H-834.4z"/>
	</g>
</g>
</svg>
