<?xml version="1.0" encoding="utf-8"?>
<!-- Generator: Adobe Illustrator 18.1.0, SVG Export Plug-In . SVG Version: 6.00 Build 0)  -->
<svg version="1.1" id="圖層_1" xmlns="http://www.w3.org/2000/svg" xmlns:xlink="http://www.w3.org/1999/xlink" x="0px" y="0px"
	 viewBox="0 0 62 34" enable-background="new 0 0 62 34" xml:space="preserve">
<g>
	<g>
		<path fill="#666666" d="M31.2,13.5c0-0.1,0.1-0.1,0.1-0.2v0c0-0.2-0.2-0.3-0.4-0.3l-0.6,0.1c0.2-0.4,0.4-0.7,0.5-1
			c0-0.1,0-0.2,0-0.3c-0.1-0.1-0.1-0.1-0.3-0.1h-1.7c0.1-0.1,0.1-0.2,0.1-0.4c0,0,0,0,0,0h1.9c0.2,0,0.3-0.1,0.3-0.3
			c0-0.2-0.1-0.3-0.3-0.3h-0.1v-0.3c0-0.2-0.1-0.3-0.3-0.3h0c-0.2,0-0.3,0.1-0.3,0.3v0.3h-0.5V9.7h1.1c0.2,0,0.3-0.1,0.3-0.3
			c0-0.2-0.1-0.3-0.3-0.3h-1.1V8.8c0-0.2-0.1-0.3-0.3-0.3h0c-0.2,0-0.3,0.1-0.3,0.3v0.3H28c-0.2,0-0.3,0.1-0.3,0.3
			c0,0.2,0.1,0.3,0.3,0.3h1.1v0.9h-1.2c-0.2,0-0.3,0.1-0.3,0.3c0,0.2,0.1,0.3,0.3,0.3h0.5c-0.1,0.3-0.4,0.7-0.7,1
			c-0.1,0.1-0.1,0.3,0,0.4c0.1,0.1,0.1,0.1,0.2,0.1c0.1,0,0.2,0,0.2-0.1c0.1-0.1,0.2-0.2,0.4-0.4c0,0,0.1,0,0.1,0h1.5
			c-0.1,0.4-0.3,0.6-0.6,0.9c0,0,0,0,0,0l-1.6,0.2c-0.2,0-0.3,0.2-0.3,0.3l0,0c0,0.2,0.1,0.3,0.3,0.3c0,0,0,0,0,0l1.5-0.2v0.8
			c0,0.1,0,0.1-0.1,0.2c-0.1,0-0.1,0.1-0.2,0.1h-0.4c-0.2,0-0.3,0.1-0.3,0.3c0,0.2,0.1,0.3,0.3,0.3h0.4c0.2,0,0.5-0.1,0.6-0.3
			c0.2-0.2,0.3-0.4,0.3-0.6v-0.9l0.9-0.1C31.1,13.7,31.2,13.6,31.2,13.5z"/>
		<path fill="#666666" d="M33.3,13c0.4-1,0.8-2.7,1-3.3l0,0c0.2,0,0.3-0.1,0.3-0.3c0-0.2-0.1-0.3-0.3-0.3H32l0-0.3
			c0-0.1,0-0.2-0.1-0.2c0-0.1-0.1-0.1-0.2-0.1l0,0c-0.2,0-0.3,0.1-0.3,0.3l-0.1,0.6c0,0.1,0,0.2,0.1,0.3c0.1,0.1,0.1,0.1,0.2,0.1h2
			c-0.1,0.5-0.4,1.9-0.7,2.6l-1-1.9c-0.1-0.1-0.3-0.2-0.4-0.1l0,0c-0.1,0-0.1,0.1-0.2,0.2c0,0.1,0,0.2,0,0.2l1.2,2.3l-0.1,0.1
			c-0.2,0.4-0.4,0.8-0.7,1.2c-0.2,0.3-0.4,0.5-0.7,0.8c-0.1,0.1-0.1,0.1-0.1,0.2c0,0.1,0,0.2,0.1,0.2c0.1,0.1,0.1,0.1,0.2,0.1
			c0.1,0,0.2,0,0.2-0.1c0.3-0.3,0.5-0.5,0.7-0.8c0.3-0.3,0.5-0.7,0.7-1l1,1.8c0.1,0.2,0.3,0.2,0.4,0.1l0,0c0.1-0.1,0.2-0.3,0.1-0.4
			L33.3,13z"/>
	</g>
	<g>
		<path fill="#666666" d="M44.9,11.5H41c-0.4,0-0.8,0.2-0.9,0.6C40,12.2,40,12.4,40,12.5v2.7c0,0.2,0.1,0.3,0.3,0.3
			c0.2,0,0.3-0.1,0.3-0.3v-0.5h4.7v0.5c0,0.2,0.1,0.3,0.3,0.3h0c0.2,0,0.3-0.1,0.3-0.3v-2.7c0-0.1,0-0.3-0.1-0.4
			C45.7,11.7,45.3,11.5,44.9,11.5z M40.6,12.5c0-0.1,0-0.2,0.1-0.3c0.1-0.1,0.2-0.1,0.3-0.1h3.9c0.1,0,0.2,0,0.3,0.1
			c0.1,0.1,0.1,0.2,0.1,0.3v0.3h-4.7V12.5z M45.3,13.5v0.7h-4.7v-0.7H45.3z"/>
		<path fill="#666666" d="M46.1,9h-2.8l0-0.3c0-0.2-0.1-0.3-0.3-0.3h0c-0.2,0-0.3,0.1-0.3,0.3l0,0.3h-2.8c-0.2,0-0.3,0.1-0.3,0.3v0
			c0,0.2,0.1,0.3,0.3,0.3h0.8l-0.3,1.2c0,0.1,0,0.2,0,0.3c0.1,0.1,0.2,0.1,0.3,0.1h4.3c0.1,0,0.3,0,0.4-0.1c0.3-0.1,0.4-0.3,0.5-0.5
			c0.1-0.1,0.1-0.3,0.1-0.4v0c0-0.2-0.1-0.3-0.3-0.3h0c-0.2,0-0.3,0.1-0.3,0.3v0c0,0.1,0,0.2-0.1,0.3c-0.1,0.1-0.2,0.1-0.3,0.1H41
			l0.3-0.9c0,0,0,0,0,0h4.9c0.2,0,0.3-0.1,0.3-0.3v0C46.4,9.2,46.3,9,46.1,9z"/>
	</g>
	<g>
		<path fill="#666666" d="M55.7,11.2H57c0.2,0,0.3-0.1,0.3-0.3c0-0.2-0.1-0.3-0.3-0.3h-1.3c-0.2,0-0.3,0.1-0.3,0.3
			C55.4,11,55.5,11.2,55.7,11.2z"/>
		<path fill="#666666" d="M55.7,12.1H57c0.2,0,0.3-0.1,0.3-0.3c0-0.2-0.1-0.3-0.3-0.3h-1.3c-0.2,0-0.3,0.1-0.3,0.3
			C55.4,12,55.5,12.1,55.7,12.1z"/>
		<g>
			<path fill="#666666" d="M51.9,12.8c0,0.2,0.1,0.3,0.3,0.3h5.3c0.2,0,0.3-0.1,0.3-0.3c0-0.2-0.1-0.3-0.3-0.3h-5.3
				C52,12.5,51.9,12.6,51.9,12.8z"/>
			<path fill="#666666" d="M51.7,9.2h2.8v0.4h-2c-0.6,0-1,0.4-1,1v1.3c0,0.2,0.1,0.3,0.3,0.3h0c0.2,0,0.3-0.1,0.3-0.3v-1.3
				c0-0.1,0-0.2,0.1-0.3c0.1-0.1,0.2-0.1,0.3-0.1h2V12c0,0.2,0.1,0.3,0.3,0.3h0c0.2,0,0.3-0.1,0.3-0.3v-1.7h2c0.1,0,0.2,0,0.3,0.1
				c0.1,0.1,0.1,0.2,0.1,0.3v1.3c0,0.2,0.1,0.3,0.3,0.3h0c0.2,0,0.3-0.1,0.3-0.3v-1.3c0-0.1,0-0.3-0.1-0.4c-0.2-0.4-0.5-0.6-0.9-0.6
				h-2V9.2h2.8c0.2,0,0.3-0.1,0.3-0.3c0-0.2-0.1-0.3-0.3-0.3h-6.2c-0.2,0-0.3,0.1-0.3,0.3C51.4,9.1,51.5,9.2,51.7,9.2z"/>
			<path fill="#666666" d="M52.7,11.2H54c0.2,0,0.3-0.1,0.3-0.3c0-0.2-0.1-0.3-0.3-0.3h-1.3c-0.2,0-0.3,0.1-0.3,0.3
				C52.3,11,52.5,11.2,52.7,11.2z"/>
			<path fill="#666666" d="M52.7,12.1H54c0.2,0,0.3-0.1,0.3-0.3c0-0.2-0.1-0.3-0.3-0.3h-1.3c-0.2,0-0.3,0.1-0.3,0.3
				C52.3,12,52.5,12.1,52.7,12.1z"/>
			<path fill="#666666" d="M58.1,13.4h-6.5c-0.2,0-0.3,0.1-0.3,0.3c0,0.2,0.1,0.3,0.3,0.3h0.8L52,15.2c0,0.1,0,0.2,0.1,0.3
				c0.1,0.1,0.1,0.1,0.2,0.1h4.6c0.2,0,0.3,0,0.4-0.1c0.3-0.1,0.4-0.3,0.5-0.5c0.1-0.1,0.1-0.3,0.1-0.4v-0.1c0-0.2-0.1-0.3-0.3-0.3
				h0c-0.2,0-0.3,0.1-0.3,0.3v0.1c0,0.1,0,0.2-0.1,0.3C57.1,14.9,57,15,56.9,15h-4.1l0.3-1h5c0.2,0,0.3-0.1,0.3-0.3
				C58.4,13.5,58.2,13.4,58.1,13.4z"/>
		</g>
	</g>
	<g>
		<path fill="#4FA0CA" d="M19.4,10.2c-0.1,0-0.1,0-0.2,0c-1.2-1.5-3-2.4-4.9-2.4c-2.3,0-4.4,1.3-5.5,3.3C8.5,11,8.2,11,8,11
			c-2.7,0-4.9,2.1-5.1,4.7c0,0-0.1,0.6,0.7,0.6c0.7,0,0.7-0.6,0.7-0.6c0.2-1.8,1.7-3.2,3.6-3.2c0.2,0,0.4,0,0.6,0
			c0.8,0.1,1.5,0.5,2,1c0,0,0.5,0.3,0.9-0.1c0.4-0.4,0.1-0.9,0.1-0.9c-0.4-0.4-0.9-0.8-1.4-1c0.9-1.4,2.4-2.2,4.1-2.2
			c1.2,0,2.3,0.4,3.2,1.2c-0.9,0.3-1.7,0.8-2.3,1.5c0,0-0.4,0.5,0.1,1c0.5,0.5,1,0,1,0c0.8-0.8,1.8-1.3,3-1.3c0.1,0,0.1,0,0.2,0
			c2.1,0.1,3.8,1.8,3.8,4c0,0,0,0.6,0.7,0.6c0.7,0,0.7-0.6,0.7-0.6C24.7,12.8,22.4,10.4,19.4,10.2z"/>
		<g>
			<path fill="#80C41C" d="M8.6,21.5c0.2,0,0.4-0.1,0.6-0.2c0.2-0.2,0.2-0.3,0.2-0.6c0,0,0,0,0,0v0v0c0-0.9-0.3-1.7-0.9-2.3
				c-0.6-0.6-1.4-0.9-2.3-0.9c-0.9,0-1.7,0.3-2.3,0.9C3.3,19,3,19.8,3,20.7v0.8c0,0.9,0.3,1.7,0.9,2.3c0.6,0.6,1.4,0.9,2.3,0.9
				c0.7,0,1.5-0.1,2-0.6C9.1,23.5,9.2,23,9.2,23s0.3-0.6-0.3-1c0,0-0.2-0.2-0.7-0.1c-0.4,0.1-0.5,0.5-0.5,0.8
				c-0.1,0.4-0.2,0.6-0.5,0.9c-0.3,0.2-0.6,0.3-1,0.3c-0.5,0-0.8-0.2-1.2-0.5c-0.3-0.3-0.5-0.7-0.5-1.2v-0.8H8.6z M4.6,19.9
				c0-0.5,0.2-0.8,0.5-1.2c0.3-0.3,0.7-0.5,1.2-0.5c0.5,0,0.8,0.2,1.1,0.5c0.3,0.3,0.5,0.7,0.5,1.2v0.8H4.6V19.9z"/>
			<path fill="#80C41C" d="M16.6,16.6c2.7,0.3,2.5-2.5,2.5-2.5c-2.1-0.2-2.7,0.9-2.8,1.7c-0.1-0.8-0.8-1.9-2.8-1.7
				c0,0-0.2,2.8,2.5,2.5c0,0.6-0.2,1.5-0.2,1.5c-0.7-0.6-1.4-0.7-2-0.7c-0.9,0-1.7,0.3-2.3,0.9c-0.6,0.6-0.9,1.4-0.9,2.3v0.8
				c0,0.9,0.3,1.7,0.9,2.3c0.6,0.6,1.4,0.9,2.3,0.9c0.9,0,1.7-0.3,2.3-0.9c0.6-0.6,0.9-1.4,0.9-2.3c0,0,0-0.3,0-1.4
				C17,18.4,16.5,17.5,16.6,16.6z M15.4,22.3c0,0.5-0.2,0.8-0.5,1.1c-0.3,0.3-0.7,0.5-1.1,0.5c-0.5,0-0.8-0.2-1.2-0.5
				c-0.3-0.3-0.5-0.7-0.5-1.2v-2.4c0-0.5,0.2-0.8,0.5-1.2c0.3-0.3,0.7-0.5,1.2-0.5c0.5,0,0.8,0.2,1.1,0.5c0.3,0.3,0.5,0.7,0.5,1.2
				V22.3z"/>
			<path fill="#80C41C" d="M24.5,17.7c-0.2-0.2-0.3-0.2-0.6-0.2c-0.2,0-0.4,0.1-0.6,0.2c-0.2,0.2-0.2,0.3-0.2,0.6v4
				c0,0.5-0.2,0.8-0.5,1.1c-0.3,0.3-0.7,0.5-1.1,0.5c-0.5,0-0.8-0.2-1.2-0.5c-0.3-0.3-0.5-0.7-0.5-1.2v-4c0-0.2-0.1-0.4-0.2-0.6
				c-0.2-0.2-0.3-0.2-0.6-0.2c-0.2,0-0.4,0.1-0.6,0.2c-0.2,0.2-0.2,0.3-0.2,0.6v3.3c0,0.9,0.3,1.7,0.9,2.3c0.6,0.6,1.4,0.9,2.3,0.9
				c0.9,0,1.7-0.3,2.3-0.9c0.6-0.6,0.9-1.4,0.9-2.3v-3.2C24.7,18.1,24.6,17.9,24.5,17.7z"/>
		</g>
	</g>
	<g>
		<g>
			<g>
				<path fill="none" stroke="#1C9CC5" stroke-width="0.3025" stroke-linecap="round" stroke-linejoin="round" d="M33.7,23h0.7
					c0.1,0,0.3-0.1,0.3-0.3v-0.6c0-0.1-0.1-0.3-0.3-0.3h-0.3c0.1,0,0.1-0.1,0.1-0.2V21c0-0.1-0.1-0.3-0.3-0.3h-0.1
					c0.1,0,0.1-0.1,0.1-0.2v-0.4l0.4,0.1c0,0,0.1,0,0.1,0c0.1,0,0.2-0.1,0.3-0.2c0.2-0.6,0.3-1.1,0.3-1.6c0-0.1-0.1-0.2-0.1-0.3
					L34.3,18c0,0-0.1,0-0.1,0c0,0,0-0.1,0-0.1v-0.6c0-0.1-0.1-0.3-0.3-0.3H28c-0.1,0-0.3,0.1-0.3,0.3v0.6c0,0,0,0.1,0,0.1h-0.2
					c-0.2,0-0.4,0.2-0.4,0.4v1.6c0,0.1,0.1,0.3,0.3,0.3H28v0.4c0,0.1,0,0.2,0.1,0.2H28c-0.1,0-0.3,0.1-0.3,0.3v0.6
					c0,0.1,0,0.1,0.1,0.2h-0.3c-0.1,0-0.3,0.1-0.3,0.3v0.6c0,0.1,0.1,0.3,0.3,0.3H29c-0.1,0.2-0.2,0.3-0.3,0.4l-1.2,0.1
					c-0.1,0-0.2,0-0.2,0.1c0,0.1-0.1,0.1,0,0.2l0.2,0.6c0,0.1,0.1,0.2,0.3,0.2c0,0,0,0,0,0l5.8-0.3l0.4,0.4c0.1,0,0.1,0.1,0.2,0.1
					c0.1,0,0.1,0,0.2-0.1l0.5-0.5c0-0.1,0.1-0.1,0.1-0.2c0-0.1,0-0.1-0.1-0.2C34.5,23.6,34.2,23.3,33.7,23z M32.1,23.2
					C32.1,23.2,32.1,23.2,32.1,23.2l-1.9,0.1l0.2-0.4h1.7l0,0C32.1,23,32.1,23.1,32.1,23.2z"/>
				<path fill="none" stroke="#1C9CC5" stroke-width="0.3025" stroke-linecap="round" stroke-linejoin="round" d="M42.5,19.3h-0.2
					c0.2-0.1,0.3-0.3,0.3-0.5v-1.4c0-0.1-0.1-0.3-0.3-0.3h-0.6c-0.1,0-0.3,0.1-0.3,0.3v0.8h-0.7v-1c0-0.1-0.1-0.3-0.3-0.3h-0.6
					c-0.1,0-0.3,0.1-0.3,0.3v1h-0.6v-0.8c0-0.1-0.1-0.3-0.3-0.3H38c-0.1,0-0.3,0.1-0.3,0.3v0.6c0,0,0,0,0,0h-0.6v-0.7
					c0-0.1-0.1-0.3-0.3-0.3h-0.7c-0.1,0-0.3,0.1-0.3,0.3v0.7h-0.6c-0.1,0-0.3,0.1-0.3,0.3v0.7c0,0.1,0.1,0.3,0.3,0.3h0.1
					c0,0,0,0-0.1,0c0,0.1-0.1,0.1-0.1,0.2c0.1,0.9,0.1,1.8,0.1,2.8c0,0.2,0,0.5,0,0.7c0,0.1,0,0.1,0.1,0.2c0,0.1,0.1,0.1,0.2,0.1
					l0.3,0l-0.7,0.2c-0.1,0-0.1,0.1-0.2,0.1c0,0.1,0,0.1,0,0.2l0.2,0.6c0,0.1,0.1,0.2,0.3,0.2c0,0,0,0,0.1,0l2.2-0.5v0.6
					c0,0.1,0.1,0.3,0.3,0.3h0.7c0.1,0,0.3-0.1,0.3-0.3v-2.8H39v2.6c0,0.1,0.1,0.3,0.3,0.3h0.6c0.1,0,0.3-0.1,0.3-0.3v-2.6h0.1v2.6
					c0,0.1,0.1,0.3,0.3,0.3h0.5c0,0.1,0.1,0.2,0.2,0.2l0.1,0c0.1,0,0.3,0,0.4,0c0.3,0,0.5-0.1,0.7-0.2c0,0,0,0,0,0
					c0.3-0.2,0.4-0.5,0.4-0.8v-2.9c0-0.2-0.2-0.4-0.4-0.4h-1.8l0-0.1h1.9c0.1,0,0.3-0.1,0.3-0.3v-0.6C42.7,19.4,42.6,19.3,42.5,19.3
					z M41.4,21.6h0.2v1.9c0,0,0,0,0,0l-0.2,0V21.6z M37.8,19c0.1,0.1,0.2,0.2,0.3,0.2h-0.1c-0.1,0-0.1,0-0.1,0c0,0,0-0.1,0-0.1
					C37.8,19.2,37.8,19.1,37.8,19C37.7,19,37.8,19,37.8,19z M36.6,19.1c0,0.8,0,1.7-0.1,2.5c0-0.7-0.1-1.5-0.1-2.4
					c0-0.1,0-0.1-0.1-0.2L36.6,19.1C36.6,19.1,36.6,19.1,36.6,19.1z M37.7,20.9v1.7c0,0,0,0-0.1,0l-0.1,0c0.1-0.7,0.2-1.5,0.2-2.3
					c0,0.1,0.1,0.1,0.2,0.1h1.4l0,0.1h-1.1C37.9,20.5,37.7,20.6,37.7,20.9z"/>
				<path fill="none" stroke="#1C9CC5" stroke-width="0.3025" stroke-linecap="round" stroke-linejoin="round" d="M50.6,17.1L50,17
					c0,0-0.1,0-0.1,0c-0.1,0-0.2,0.1-0.3,0.2l-0.1,0.4h-0.4v-0.4c0-0.1-0.1-0.3-0.3-0.3h-0.6c-0.1,0-0.3,0.1-0.3,0.3v0.4h-0.5
					c-0.1,0-0.3,0.1-0.3,0.3V18c0,0-0.1,0-0.1,0c0,0,0-0.1,0-0.1v-0.6c0-0.1-0.1-0.3-0.3-0.3h-1.7c0,0,0,0,0,0c0,0,0,0,0,0
					c0-0.1-0.1-0.1-0.2-0.1l-0.7-0.1c0,0,0,0,0,0c-0.1,0-0.1,0-0.2,0.1C44,16.9,44,17,44,17.1c-0.1,1.1-0.4,2.2-1.1,3.2
					c0,0.1-0.1,0.2,0,0.2s0.1,0.1,0.2,0.2l0.6,0.2c0,0,0,0,0,0v3.4c0,0.1,0.1,0.3,0.3,0.3h0.6c0.1,0,0.2-0.1,0.2-0.2
					c0,0,0.1,0,0.1,0h0.6c0.1,0,0.3-0.1,0.3-0.3v-0.1h0.4v0.1c0,0.1,0.1,0.3,0.3,0.3H47c0.1,0,0.3-0.1,0.3-0.3v-2.4c0,0,0.1,0,0.1,0
					v2.5c0,0.1,0.1,0.3,0.3,0.3h0.6c0.1,0,0.3-0.1,0.3-0.3v-0.1h0.8v0.1c0,0.1,0.1,0.3,0.3,0.3h0.6c0.1,0,0.3-0.1,0.3-0.3v-3.5
					c0-0.2-0.2-0.4-0.4-0.4h-1c0.2-0.1,0.3-0.3,0.4-0.4h1c0.1,0,0.3-0.1,0.3-0.3v-0.6c0-0.1-0.1-0.3-0.3-0.3h-0.3
					c0.2-0.5,0.4-0.9,0.6-1.4C50.8,17.3,50.8,17.2,50.6,17.1z M46.2,22.4V23h-0.4v-0.6H46.2z M49.4,22.9v0.2h-0.8v-0.2H49.4z
					 M48.6,21.8v-0.2h0.8v0.2H48.6z M47.4,18.6c0,0,0.5,0,0.5,0v0.3h-0.5V18.6z M47.3,20.1h0.6c-0.2,0.2-0.4,0.3-0.7,0.5v-0.1
					c0-0.1-0.1-0.2-0.2-0.2c0.1,0,0.1-0.1,0.1-0.1C47.2,20.1,47.2,20.1,47.3,20.1z M44.8,21.3L44.8,21.3
					C44.9,21.2,44.9,21.2,44.8,21.3C44.9,21.3,44.9,21.3,44.8,21.3z M44.8,20.3v-0.2C44.9,20.1,44.9,20.2,44.8,20.3
					C44.9,20.2,44.9,20.2,44.8,20.3z"/>
				<path fill="none" stroke="#1C9CC5" stroke-width="0.3025" stroke-linecap="round" stroke-linejoin="round" d="M58.5,21.2h-1.8
					l-0.1-0.2l1.6-1.2c0.1,0,0.1-0.1,0.1-0.2c0-0.1,0-0.2-0.1-0.2l-0.5-0.5c0,0-0.1-0.1-0.2-0.1h-3.1c0,0,0-0.1,0-0.1h4
					c0.1,0,0.3-0.1,0.3-0.3v-0.7c0-0.1-0.1-0.3-0.3-0.3h-3.6l0-0.2c0-0.1,0-0.1,0-0.2c0-0.1-0.1-0.1-0.2-0.1l-0.7-0.1c0,0,0,0,0,0
					c-0.1,0-0.2,0.1-0.3,0.2l-0.1,0.4h-2c-0.1,0-0.3,0.1-0.3,0.3v0.7c0,0.1,0.1,0.3,0.3,0.3H53c-0.5,1.1-1.6,1.9-2.1,2.3
					c-0.1,0.1-0.1,0.1-0.1,0.2c0,0.1,0,0.2,0.1,0.2l0.6,0.5c0,0,0.1,0.1,0.2,0.1c0.1,0,0.1,0,0.2-0.1l0.1-0.1v2.6
					c0,0.1,0.1,0.3,0.3,0.3h0.7c0.1,0,0.3-0.1,0.3-0.3v-2.1c0,0,0.1,0.1,0.2,0.1h2.4c0.1,0.2,0.1,0.4,0.1,0.6c0,0.6-0.3,0.6-0.4,0.6
					c-0.2,0-0.5-0.1-1.2-0.4c0,0-0.1,0-0.1,0c0,0-0.1,0-0.1,0c-0.1,0-0.1,0.1-0.1,0.2l0,0.8c0,0.1,0.1,0.2,0.2,0.3
					c0.5,0.2,1,0.3,1.4,0.3c1,0,1.7-0.6,1.7-1.6c0-0.2,0-0.5-0.1-0.8h1.5c0.1,0,0.3-0.1,0.3-0.3v-0.7C58.8,21.3,58.7,21.2,58.5,21.2
					z M53.2,21.2v-0.6c0.3-0.3,0.5-0.6,0.7-0.9c0,0.1,0.1,0.2,0.3,0.2h1.7l-0.3,0.3h-0.2c-0.1,0-0.2,0.1-0.2,0.1c0,0.1,0,0.2,0,0.3
					c0.1,0.2,0.2,0.4,0.3,0.5h-2C53.3,21.2,53.2,21.2,53.2,21.2z"/>
			</g>
			<g>
				<path fill="#FFFFFF" d="M33.7,23h0.7c0.1,0,0.3-0.1,0.3-0.3v-0.6c0-0.1-0.1-0.3-0.3-0.3h-0.3c0.1,0,0.1-0.1,0.1-0.2V21
					c0-0.1-0.1-0.3-0.3-0.3h-0.1c0.1,0,0.1-0.1,0.1-0.2v-0.4l0.4,0.1c0,0,0.1,0,0.1,0c0.1,0,0.2-0.1,0.3-0.2
					c0.2-0.6,0.3-1.1,0.3-1.6c0-0.1-0.1-0.2-0.1-0.3L34.3,18c0,0-0.1,0-0.1,0c0,0,0-0.1,0-0.1v-0.6c0-0.1-0.1-0.3-0.3-0.3H28
					c-0.1,0-0.3,0.1-0.3,0.3v0.6c0,0,0,0.1,0,0.1h-0.2c-0.2,0-0.4,0.2-0.4,0.4v1.6c0,0.1,0.1,0.3,0.3,0.3H28v0.4
					c0,0.1,0,0.2,0.1,0.2H28c-0.1,0-0.3,0.1-0.3,0.3v0.6c0,0.1,0,0.1,0.1,0.2h-0.3c-0.1,0-0.3,0.1-0.3,0.3v0.6
					c0,0.1,0.1,0.3,0.3,0.3H29c-0.1,0.2-0.2,0.3-0.3,0.4l-1.2,0.1c-0.1,0-0.2,0-0.2,0.1c0,0.1-0.1,0.1,0,0.2l0.2,0.6
					c0,0.1,0.1,0.2,0.3,0.2c0,0,0,0,0,0l5.8-0.3l0.4,0.4c0.1,0,0.1,0.1,0.2,0.1c0.1,0,0.1,0,0.2-0.1l0.5-0.5c0-0.1,0.1-0.1,0.1-0.2
					c0-0.1,0-0.1-0.1-0.2C34.5,23.6,34.2,23.3,33.7,23z M32.1,23.2C32.1,23.2,32.1,23.2,32.1,23.2l-1.9,0.1l0.2-0.4h1.7l0,0
					C32.1,23,32.1,23.1,32.1,23.2z"/>
				<path fill="#FFFFFF" d="M42.5,19.3h-0.2c0.2-0.1,0.3-0.3,0.3-0.5v-1.4c0-0.1-0.1-0.3-0.3-0.3h-0.6c-0.1,0-0.3,0.1-0.3,0.3v0.8
					h-0.7v-1c0-0.1-0.1-0.3-0.3-0.3h-0.6c-0.1,0-0.3,0.1-0.3,0.3v1h-0.6v-0.8c0-0.1-0.1-0.3-0.3-0.3H38c-0.1,0-0.3,0.1-0.3,0.3v0.6
					c0,0,0,0,0,0h-0.6v-0.7c0-0.1-0.1-0.3-0.3-0.3h-0.7c-0.1,0-0.3,0.1-0.3,0.3v0.7h-0.6c-0.1,0-0.3,0.1-0.3,0.3v0.7
					c0,0.1,0.1,0.3,0.3,0.3h0.1c0,0,0,0-0.1,0c0,0.1-0.1,0.1-0.1,0.2c0.1,0.9,0.1,1.8,0.1,2.8c0,0.2,0,0.5,0,0.7
					c0,0.1,0,0.1,0.1,0.2c0,0.1,0.1,0.1,0.2,0.1l0.3,0l-0.7,0.2c-0.1,0-0.1,0.1-0.2,0.1c0,0.1,0,0.1,0,0.2l0.2,0.6
					c0,0.1,0.1,0.2,0.3,0.2c0,0,0,0,0.1,0l2.2-0.5v0.6c0,0.1,0.1,0.3,0.3,0.3h0.7c0.1,0,0.3-0.1,0.3-0.3v-2.8H39v2.6
					c0,0.1,0.1,0.3,0.3,0.3h0.6c0.1,0,0.3-0.1,0.3-0.3v-2.6h0.1v2.6c0,0.1,0.1,0.3,0.3,0.3h0.5c0,0.1,0.1,0.2,0.2,0.2l0.1,0
					c0.1,0,0.3,0,0.4,0c0.3,0,0.5-0.1,0.7-0.2c0,0,0,0,0,0c0.3-0.2,0.4-0.5,0.4-0.8v-2.9c0-0.2-0.2-0.4-0.4-0.4h-1.8l0-0.1h1.9
					c0.1,0,0.3-0.1,0.3-0.3v-0.6C42.7,19.4,42.6,19.3,42.5,19.3z M41.4,21.6h0.2v1.9c0,0,0,0,0,0l-0.2,0V21.6z M37.8,19
					c0.1,0.1,0.2,0.2,0.3,0.2h-0.1c-0.1,0-0.1,0-0.1,0c0,0,0-0.1,0-0.1C37.8,19.2,37.8,19.1,37.8,19C37.7,19,37.8,19,37.8,19z
					 M36.6,19.1c0,0.8,0,1.7-0.1,2.5c0-0.7-0.1-1.5-0.1-2.4c0-0.1,0-0.1-0.1-0.2L36.6,19.1C36.6,19.1,36.6,19.1,36.6,19.1z
					 M37.7,20.9v1.7c0,0,0,0-0.1,0l-0.1,0c0.1-0.7,0.2-1.5,0.2-2.3c0,0.1,0.1,0.1,0.2,0.1h1.4l0,0.1h-1.1
					C37.9,20.5,37.7,20.6,37.7,20.9z"/>
				<path fill="#FFFFFF" d="M50.6,17.1L50,17c0,0-0.1,0-0.1,0c-0.1,0-0.2,0.1-0.3,0.2l-0.1,0.4h-0.4v-0.4c0-0.1-0.1-0.3-0.3-0.3
					h-0.6c-0.1,0-0.3,0.1-0.3,0.3v0.4h-0.5c-0.1,0-0.3,0.1-0.3,0.3V18c0,0-0.1,0-0.1,0c0,0,0-0.1,0-0.1v-0.6c0-0.1-0.1-0.3-0.3-0.3
					h-1.7c0,0,0,0,0,0c0,0,0,0,0,0c0-0.1-0.1-0.1-0.2-0.1l-0.7-0.1c0,0,0,0,0,0c-0.1,0-0.1,0-0.2,0.1C44,16.9,44,17,44,17.1
					c-0.1,1.1-0.4,2.2-1.1,3.2c0,0.1-0.1,0.2,0,0.2s0.1,0.1,0.2,0.2l0.6,0.2c0,0,0,0,0,0v3.4c0,0.1,0.1,0.3,0.3,0.3h0.6
					c0.1,0,0.2-0.1,0.2-0.2c0,0,0.1,0,0.1,0h0.6c0.1,0,0.3-0.1,0.3-0.3v-0.1h0.4v0.1c0,0.1,0.1,0.3,0.3,0.3H47
					c0.1,0,0.3-0.1,0.3-0.3v-2.4c0,0,0.1,0,0.1,0v2.5c0,0.1,0.1,0.3,0.3,0.3h0.6c0.1,0,0.3-0.1,0.3-0.3v-0.1h0.8v0.1
					c0,0.1,0.1,0.3,0.3,0.3h0.6c0.1,0,0.3-0.1,0.3-0.3v-3.5c0-0.2-0.2-0.4-0.4-0.4h-1c0.2-0.1,0.3-0.3,0.4-0.4h1
					c0.1,0,0.3-0.1,0.3-0.3v-0.6c0-0.1-0.1-0.3-0.3-0.3h-0.3c0.2-0.5,0.4-0.9,0.6-1.4C50.8,17.3,50.8,17.2,50.6,17.1z M46.2,22.4V23
					h-0.4v-0.6H46.2z M49.4,22.9v0.2h-0.8v-0.2H49.4z M48.6,21.8v-0.2h0.8v0.2H48.6z M47.4,18.6c0,0,0.5,0,0.5,0v0.3h-0.5V18.6z
					 M47.3,20.1h0.6c-0.2,0.2-0.4,0.3-0.7,0.5v-0.1c0-0.1-0.1-0.2-0.2-0.2c0.1,0,0.1-0.1,0.1-0.1C47.2,20.1,47.2,20.1,47.3,20.1z
					 M44.8,21.3L44.8,21.3C44.9,21.2,44.9,21.2,44.8,21.3C44.9,21.3,44.9,21.3,44.8,21.3z M44.8,20.3v-0.2
					C44.9,20.1,44.9,20.2,44.8,20.3C44.9,20.2,44.9,20.2,44.8,20.3z"/>
				<path fill="#FFFFFF" d="M58.5,21.2h-1.8l-0.1-0.2l1.6-1.2c0.1,0,0.1-0.1,0.1-0.2c0-0.1,0-0.2-0.1-0.2l-0.5-0.5
					c0,0-0.1-0.1-0.2-0.1h-3.1c0,0,0-0.1,0-0.1h4c0.1,0,0.3-0.1,0.3-0.3v-0.7c0-0.1-0.1-0.3-0.3-0.3h-3.6l0-0.2c0-0.1,0-0.1,0-0.2
					c0-0.1-0.1-0.1-0.2-0.1l-0.7-0.1c0,0,0,0,0,0c-0.1,0-0.2,0.1-0.3,0.2l-0.1,0.4h-2c-0.1,0-0.3,0.1-0.3,0.3v0.7
					c0,0.1,0.1,0.3,0.3,0.3H53c-0.5,1.1-1.6,1.9-2.1,2.3c-0.1,0.1-0.1,0.1-0.1,0.2c0,0.1,0,0.2,0.1,0.2l0.6,0.5c0,0,0.1,0.1,0.2,0.1
					c0.1,0,0.1,0,0.2-0.1l0.1-0.1v2.6c0,0.1,0.1,0.3,0.3,0.3h0.7c0.1,0,0.3-0.1,0.3-0.3v-2.1c0,0,0.1,0.1,0.2,0.1h2.4
					c0.1,0.2,0.1,0.4,0.1,0.6c0,0.6-0.3,0.6-0.4,0.6c-0.2,0-0.5-0.1-1.2-0.4c0,0-0.1,0-0.1,0c0,0-0.1,0-0.1,0
					c-0.1,0-0.1,0.1-0.1,0.2l0,0.8c0,0.1,0.1,0.2,0.2,0.3c0.5,0.2,1,0.3,1.4,0.3c1,0,1.7-0.6,1.7-1.6c0-0.2,0-0.5-0.1-0.8h1.5
					c0.1,0,0.3-0.1,0.3-0.3v-0.7C58.8,21.3,58.7,21.2,58.5,21.2z M53.2,21.2v-0.6c0.3-0.3,0.5-0.6,0.7-0.9c0,0.1,0.1,0.2,0.3,0.2
					h1.7l-0.3,0.3h-0.2c-0.1,0-0.2,0.1-0.2,0.1c0,0.1,0,0.2,0,0.3c0.1,0.2,0.2,0.4,0.3,0.5h-2C53.3,21.2,53.2,21.2,53.2,21.2z"/>
			</g>
		</g>
		<g>
			<path fill="#1C9CC5" d="M30.6,18.9H28c0,0-0.1,0-0.1,0.1v1h-0.6v-1.6c0-0.1,0-0.1,0.1-0.1h3.1v-0.4H28v-0.6h5.9v0.6h-2.7v0.4h2.9
				l0.6,0.3c0,0.4-0.1,0.9-0.3,1.5l-0.6-0.2c0.1-0.5,0.2-0.8,0.2-0.9c0-0.1,0-0.1-0.1-0.1h-2.6v1.9h-0.6V18.9z M33.5,24.1l-5.9,0.3
				l-0.2-0.6l1.3-0.1c0.2-0.3,0.5-0.6,0.7-1h-2v-0.6h6.8v0.6h-1.5c0.8,0.5,1.3,1,1.7,1.3l-0.5,0.5L33.5,24.1z M28,21.1h5.9v0.6H28
				V21.1z M28.2,20.1h2v0.5h-2V20.1z M28.3,19.3h2v0.5h-2V19.3z M32.3,23.2l0.4-0.5h-2.4l-0.6,0.9l3.1-0.1L32.3,23.2z M31.6,19.2h2
				v0.5h-2V19.2z M31.6,20.1h2v0.5h-2V20.1z"/>
			<path fill="#1C9CC5" d="M36.6,23.2c0.2-1.4,0.4-2.7,0.4-4l0.6,0.1c-0.1,1.6-0.2,2.8-0.3,3.8l0.5-0.1l0.2,0.6l-2.4,0.6l-0.2-0.6
				L36.6,23.2z M36.2,18.2v-1h0.7v1h0.8v0.7h-2.4v-0.7H36.2z M35.7,22.8c0-0.2,0-0.5,0-0.7c0-0.9,0-1.8-0.1-2.8l0.6,0
				c0.1,1.2,0.1,2.2,0.1,3c0,0.2,0,0.4,0,0.5L35.7,22.8z M40.5,21.4h-0.6v2.9h-0.6v-2.9h-0.6c0,0,0,0,0,0v3H38v-3.5
				c0-0.1,0.1-0.2,0.2-0.2h1.3l0.2-0.6H38v-0.6h4.5v0.6h-2.1l-0.1,0.3l-0.1,0.3h2.1c0.1,0,0.2,0.1,0.2,0.2v2.9
				c0,0.3-0.1,0.5-0.3,0.6c-0.1,0.1-0.3,0.1-0.5,0.1c-0.1,0-0.3,0-0.4,0l-0.1-0.7l0.4,0.1c0.2,0,0.3-0.2,0.3-0.3v-2.1c0,0,0,0-0.1,0
				h-0.7v2.9h-0.6V21.4z M39.9,18.5v-1.3h0.6v1.3h1.1c0.1,0,0.1,0,0.1-0.1v-1h0.6v1.4c0,0.2-0.1,0.3-0.3,0.3h-3.7
				c-0.2,0-0.3-0.1-0.3-0.3v-1.4h0.7v1c0,0.1,0,0.1,0.1,0.1H39.9z"/>
			<path fill="#1C9CC5" d="M44,20.4l-0.2,0.3l-0.6-0.2c0.7-1.1,1-2.2,1.1-3.3l0.7,0.1c-0.1,0.6-0.2,1.2-0.3,1.7v5.5H44V20.4z
				 M44.9,18.4h2.3V19h-2.3V18.4z M45.6,24v0.3H45v-2.6c0-0.1,0-0.1,0.1-0.1H47c0.1,0,0.1,0,0.1,0.1v2.6h-0.6V24H45.6z M45.1,19.4
				H47V20h-1.8V19.4z M45.1,20.5H47v0.6h-1.9V20.5z M45.2,17.4h1.7V18h-1.7V17.4z M45.6,23.3h0.9v-1.1c0-0.1,0-0.1-0.1-0.1h-0.7
				c-0.1,0-0.1,0-0.1,0.1V23.3z M48.4,24v0.3h-0.6v-3l-0.4,0.3l-0.4-0.4c0.7-0.5,1.3-0.9,1.7-1.3h-1.3v-0.6h1v-0.8h-0.8v-0.5h0.8
				v-0.7h0.6v0.7h0.8v0.4l0.3-0.9l0.6,0.2c-0.2,0.6-0.4,1.2-0.7,1.8h0.7v0.6h-1.2c-0.1,0.2-0.5,0.5-0.9,0.9h1.7c0.1,0,0.1,0,0.1,0.1
				v3.5h-0.6V24H48.4z M48.4,22.1h1.4v-0.6c0-0.1,0-0.1-0.1-0.1h-1.2c-0.1,0-0.1,0-0.1,0.1V22.1z M49.8,22.7h-1.4v0.7h1.4V22.7z
				 M49.5,18.7l0.1-0.3h-0.7v0.8h0.2L49.5,18.7z"/>
			<path fill="#1C9CC5" d="M52.3,21.3l-0.5,0.5l-0.6-0.5c0.7-0.5,1.9-1.5,2.3-2.8h-2.1v-0.7h2.3l0.2-0.6l0.7,0.1l-0.1,0.5h4v0.7
				h-4.1c-0.2,0.5-0.6,1.4-1.3,2.1v3.8h-0.7V21.3z M55.7,20.5l0.9-0.7l0-0.1l-0.1,0h-2.3v-0.6h3.3l0.5,0.5l-1.7,1.3l0.3,0.6h2v0.7
				h-1.8c0.1,0.4,0.2,0.7,0.2,1c0,0.7-0.4,1.3-1.4,1.3c-0.4,0-0.8-0.1-1.3-0.3l0-0.8c0.5,0.3,1,0.4,1.3,0.4c0.6,0,0.7-0.5,0.7-0.9
				c0-0.2,0-0.5-0.1-0.9h-2.7v-0.7h2.4c-0.1-0.3-0.3-0.6-0.5-1H55.7z"/>
		</g>
	</g>
</g>
</svg>
